<svg class="main-svg" xmlns="http://www.w3.org/2000/svg" xmlns:xlink="http://www.w3.org/1999/xlink" width="371" height="336" style="" viewBox="0 0 371 336"><rect x="0" y="0" width="371" height="336" style="fill: rgb(255, 255, 255); fill-opacity: 1;"/><defs id="defs-2b6214"><g class="clips"><clipPath id="clip2b6214xyplot" class="plotclip"><rect width="251" height="216"/></clipPath><clipPath class="axesclip" id="clip2b6214x"><rect x="60" y="0" width="251" height="336"/></clipPath><clipPath class="axesclip" id="clip2b6214y"><rect x="0" y="60" width="371" height="216"/></clipPath><clipPath class="axesclip" id="clip2b6214xy"><rect x="60" y="60" width="251" height="216"/></clipPath></g><g class="gradients"/><g class="patterns"/></defs><g class="bglayer"/><g class="layer-below"><g class="imagelayer"/><g class="shapelayer"/></g><g class="cartesianlayer"><g class="subplot xy"><g class="layer-subplot"><g class="shapelayer"/><g class="imagelayer"/></g><g class="gridlayer"><g class="x"><path class="xgrid crisp" transform="translate(108.17,0)" d="M0,60v216" style="stroke: rgb(238, 238, 238); stroke-opacity: 1; stroke-width: 1px;"/><path class="xgrid crisp" transform="translate(158.88,0)" d="M0,60v216" style="stroke: rgb(238, 238, 238); stroke-opacity: 1; stroke-width: 1px;"/><path class="xgrid crisp" transform="translate(209.59,0)" d="M0,60v216" style="stroke: rgb(238, 238, 238); stroke-opacity: 1; stroke-width: 1px;"/><path class="xgrid crisp" transform="translate(260.28999999999996,0)" d="M0,60v216" style="stroke: rgb(238, 238, 238); stroke-opacity: 1; stroke-width: 1px;"/></g><g class="y"><path class="ygrid crisp" transform="translate(0,274.25)" d="M60,0h251" style="stroke: rgb(238, 238, 238); stroke-opacity: 1; stroke-width: 1px;"/><path class="ygrid crisp" transform="translate(0,212.2)" d="M60,0h251" style="stroke: rgb(238, 238, 238); stroke-opacity: 1; stroke-width: 1px;"/><path class="ygrid crisp" transform="translate(0,150.15)" d="M60,0h251" style="stroke: rgb(238, 238, 238); stroke-opacity: 1; stroke-width: 1px;"/><path class="ygrid crisp" transform="translate(0,88.1)" d="M60,0h251" style="stroke: rgb(238, 238, 238); stroke-opacity: 1; stroke-width: 1px;"/></g></g><g class="zerolinelayer"/><path class="xlines-below"/><path class="ylines-below"/><g class="overlines-below"/><g class="xaxislayer-below"/><g class="yaxislayer-below"/><g class="overaxes-below"/><g class="plot" transform="translate(60,60)" clip-path="url(#clip2b6214xyplot)"><g class="scatterlayer mlayer"><g class="trace scatter traceb9aaa2" style="stroke-miterlimit: 2; opacity: 1;"><g class="fills"/><g class="errorbars"/><g class="lines"><path class="js-line" d="M0,205.2L5.07,165.26L7.61,151.01L10.14,139.45L12.68,136.14L15.21,128.03L17.75,112.01L20.28,96.67L22.82,104.72L25.35,91.78L27.89,72.2L30.42,89.59L32.96,68.99L38.03,78.19L40.57,85.66L43.1,84.88L45.64,91.19L48.17,61.86L50.71,77.61L55.78,77.97L58.31,73.76L60.85,67.39L63.38,73.22L65.92,50.45L68.45,68.66L70.99,58.94L73.53,63.42L78.6,80.79L81.13,72.87L83.67,64.57L86.2,52.75L91.27,54.19L93.81,71.79L96.34,60.67L98.88,73.97L101.41,79.93L103.95,61.62L109.02,71.05L111.56,67.16L114.09,61.44L116.63,57.72L121.7,68.31L124.23,62.41L126.77,66.48L129.3,47.3L131.84,66.65L134.37,59.22L136.91,67.53L139.44,67.98L141.98,22.56L144.52,32.27L147.05,50.18L149.59,53.25L152.12,61.03L154.66,63.07L157.19,61.83L159.73,66.17L162.26,67.45L164.8,70.08L167.33,58.55L169.87,63.91L172.4,64.12L174.94,58.15L177.47,46.7L180.01,40.73L182.55,53.22L185.08,54.03L187.62,57.11L190.15,45.13L192.69,49.1L195.22,51.4L197.76,55.16L200.29,44.73L202.83,32.98L205.36,45.37L207.9,44.12L210.43,45.14L212.97,39.54L215.51,39.7L218.04,38.17L220.58,33.95L223.11,36.07L225.65,30.71L228.18,32.69L230.72,31.03L233.25,23.75L235.79,27.23L238.32,25L240.86,21.62L243.39,25.31L245.93,22.27L248.46,17.77L251,10.8" style="vector-effect: non-scaling-stroke; fill: none; stroke: rgb(31, 119, 180); stroke-opacity: 1; stroke-width: 2px; opacity: 1;"/></g><g class="points"/><g class="text"/></g></g></g><g class="overplot"/><path class="xlines-above crisp" d="M0,0" style="fill: none;"/><path class="ylines-above crisp" d="M0,0" style="fill: none;"/><g class="overlines-above"/><g class="xaxislayer-above"><g class="xtick"><text text-anchor="middle" x="0" y="289" transform="translate(108.17,0)" style="font-family: 'Open Sans', verdana, arial, sans-serif; font-size: 12px; fill: rgb(68, 68, 68); fill-opacity: 1; white-space: pre; opacity: 1;">20</text></g><g class="xtick"><text text-anchor="middle" x="0" y="289" style="font-family: 'Open Sans', verdana, arial, sans-serif; font-size: 12px; fill: rgb(68, 68, 68); fill-opacity: 1; white-space: pre; opacity: 1;" transform="translate(158.88,0)">40</text></g><g class="xtick"><text text-anchor="middle" x="0" y="289" style="font-family: 'Open Sans', verdana, arial, sans-serif; font-size: 12px; fill: rgb(68, 68, 68); fill-opacity: 1; white-space: pre; opacity: 1;" transform="translate(209.59,0)">60</text></g><g class="xtick"><text text-anchor="middle" x="0" y="289" style="font-family: 'Open Sans', verdana, arial, sans-serif; font-size: 12px; fill: rgb(68, 68, 68); fill-opacity: 1; white-space: pre; opacity: 1;" transform="translate(260.28999999999996,0)">80</text></g><g class="xtick"><text text-anchor="middle" x="0" y="289" style="font-family: 'Open Sans', verdana, arial, sans-serif; font-size: 12px; fill: rgb(68, 68, 68); fill-opacity: 1; white-space: pre; opacity: 1;" transform="translate(311,0)">100</text></g></g><g class="yaxislayer-above"><g class="ytick"><text text-anchor="end" x="59" y="4.199999999999999" transform="translate(0,274.25)" style="font-family: 'Open Sans', verdana, arial, sans-serif; font-size: 12px; fill: rgb(68, 68, 68); fill-opacity: 1; white-space: pre; opacity: 1;">1</text></g><g class="ytick"><text text-anchor="end" x="59" y="4.199999999999999" style="font-family: 'Open Sans', verdana, arial, sans-serif; font-size: 12px; fill: rgb(68, 68, 68); fill-opacity: 1; white-space: pre; opacity: 1;" transform="translate(0,212.2)">1.2</text></g><g class="ytick"><text text-anchor="end" x="59" y="4.199999999999999" style="font-family: 'Open Sans', verdana, arial, sans-serif; font-size: 12px; fill: rgb(68, 68, 68); fill-opacity: 1; white-space: pre; opacity: 1;" transform="translate(0,150.15)">1.4</text></g><g class="ytick"><text text-anchor="end" x="59" y="4.199999999999999" style="font-family: 'Open Sans', verdana, arial, sans-serif; font-size: 12px; fill: rgb(68, 68, 68); fill-opacity: 1; white-space: pre; opacity: 1;" transform="translate(0,88.1)">1.6</text></g></g><g class="overaxes-above"/></g></g><g class="polarlayer"/><g class="smithlayer"/><g class="ternarylayer"/><g class="geolayer"/><g class="funnelarealayer"/><g class="pielayer"/><g class="iciclelayer"/><g class="treemaplayer"/><g class="sunburstlayer"/><g class="glimages"/><defs id="topdefs-2b6214"><g class="clips"/></defs><g class="layer-above"><g class="imagelayer"/><g class="shapelayer"/></g><g class="infolayer"><g class="g-gtitle"><text class="gtitle" x="185.5" y="30" text-anchor="middle" dy="0em" style="font-family: 'Open Sans', verdana, arial, sans-serif; font-size: 17px; fill: rgb(68, 68, 68); opacity: 1; font-weight: normal; white-space: pre;">loss_G_GAN</text></g><g class="g-xtitle"><text class="xtitle" x="185.5" y="328" text-anchor="middle" style="font-family: 'Open Sans', verdana, arial, sans-serif; font-size: 14px; fill: rgb(68, 68, 68); opacity: 1; font-weight: normal; white-space: pre;">epochs</text></g><g class="g-ytitle"><text class="ytitle" transform="rotate(-90,22,168)" x="22" y="168" text-anchor="middle" style="font-family: 'Open Sans', verdana, arial, sans-serif; font-size: 14px; fill: rgb(68, 68, 68); opacity: 1; font-weight: normal; white-space: pre;">loss_G_GAN</text></g></g></svg>